<svg width="100%" height="100%" viewBox="0 0 866 889" fill="currentColor" xmlns="http://www.w3.org/2000/svg">
<path d="M235 23.3333C158.627 72.4 107 159.013 107 258C107 356.987 158.627 443.6 236.28 492.667C105.293 492.667 0.333344 387.707 0.333344 258C0.333344 195.763 25.0571 136.074 69.0656 92.0656C113.074 48.057 172.763 23.3333 235 23.3333ZM728.653 87.3333L789.667 148.347L125.347 812.667L64.3333 751.653L728.653 87.3333ZM464.973 191.013L401.827 151.333L340.387 194L358.307 121.467L299 76.24L373.667 71.12L398.413 0.719971L427 70.2666L500.813 71.5466L443.213 119.76L464.973 191.013ZM324.173 345.04L274.68 313.893L226.893 347.173L241.4 290.853L194.893 255.44L252.92 251.6L272.12 196.56L293.88 250.747L351.907 252.027L307.107 289.147L324.173 345.04ZM725.667 514C725.667 576.237 700.943 635.926 656.934 679.934C612.926 723.943 553.237 748.667 491 748.667C438.947 748.667 390.733 731.6 351.907 703.013L680.013 374.907C708.6 413.733 725.667 461.947 725.667 514ZM537.933 794.747L656.12 745.68L645.88 888.613L537.933 794.747ZM722.68 679.547L771.747 561.36L865.613 669.733L722.68 679.547ZM771.747 467.92L723.107 349.307L865.613 359.547L771.747 467.92ZM325.88 745.68L444.067 794.747L336.12 888.187L325.88 745.68Z"/>
</svg>
